<svg height="242" viewBox="0 0 977 242" width="977" xmlns="http://www.w3.org/2000/svg"><g fill="none"><g fill="#25384F"><path d="m0 1h82l37.5 71.5 36.5-71.5h79.5l-81 151v85.5h-72.5v-85.5z"/><path d="m244.5 1h61l68 107.5v-107.5h68v236.5h-62l-67-109v109h-68z"/><path d="m538.5.5h84l84 237h-80l-14-41.5h-69l-14 41.5h-77zm40 88.5-18 51.5h35.5zm139-88.5h101.5c79 1.5 100 78.5 48 116 52.5 37.5 33.5 121-46 121-25.333333 0-59.833333 0-103.5 0zm69 56v37h22c8.666667-2.3333333 13-9 13-20 0-8.3333333-4.333333-14-13-17zm-.5 87.5v38h22c10.666667-1.666667 16-8 16-19s-5.333333-17.333333-16-19z"/></g><circle cx="937.5" cy="202.5" fill="#85c3e9" r="39.5"/></g></svg>
